<?xml version="1.0" encoding="UTF-8"?>
<svg width="61px" height="39px" viewBox="0 0 61 39" version="1.1" xmlns="http://www.w3.org/2000/svg" xmlns:xlink="http://www.w3.org/1999/xlink">
    <!-- Generator: sketchtool 61.2 (101010) - https://sketch.com -->
    <title>5EFD85FA-8668-4C2F-A6A9-8094498C67BE</title>
    <desc>Created with sketchtool.</desc>
    <defs>
        <polygon id="path-1" points="0 0.0243553662 3.71949737 0.0243553662 3.71949737 1.66094076 0 1.66094076"></polygon>
        <polygon id="path-3" points="0.00466743938 0.0698632491 34.4141665 0.0698632491 34.4141665 11.530488 0.00466743938 11.530488"></polygon>
    </defs>
    <g id="Homepage" stroke="none" stroke-width="1" fill="none" fill-rule="evenodd">
        <g id="ADNAi-Homepage-01.1" transform="translate(-1368.000000, -1461.000000)">
            <g id="Group-20" transform="translate(1305.000000, 1461.000000)">
                <g id="adnai-logo-colors" transform="translate(63.000000, 0.000000)">
                    <path d="M33.3120707,14.6300022 C32.0601573,14.6300022 30.9202756,15.1163656 30.0694,15.9091424 L30.0694,15.3894522 C30.0694,14.97004 29.7293622,14.6300022 29.3099499,14.6300022 C28.8906121,14.6300022 28.5504999,14.97004 28.5504999,15.3894522 L28.5504999,23.3937682 C28.5504999,23.813106 28.8906121,24.1532182 29.3099499,24.1532182 C29.7293622,24.1532182 30.0694,23.813106 30.0694,23.3937682 L30.0694,19.3914986 C30.0694,17.6034547 31.5240268,16.1489022 33.3120707,16.1489022 C35.1001147,16.1489022 36.5547415,17.6034547 36.5547415,19.3914986 L36.5547415,23.3937682 C36.5547415,23.813106 36.8947793,24.1532182 37.3141915,24.1532182 C37.7335293,24.1532182 38.0736415,23.813106 38.0736415,23.3937682 L38.0736415,19.3914986 C38.0736415,16.7659693 35.9376744,14.6300022 33.3120707,14.6300022" id="Fill-1" fill="#022838"></path>
                    <path d="M10.0813214,22.6342958 C8.29327744,22.6342958 6.83850181,21.1795202 6.83850181,19.3914763 C6.83850181,17.6034323 8.29327744,16.1488799 10.0813214,16.1488799 C11.8693653,16.1488799 13.3239178,17.6034323 13.3239178,19.3914763 C13.3239178,21.1795202 11.8693653,22.6342958 10.0813214,22.6342958 M14.0833678,14.6299799 C13.6639556,14.6299799 13.3239178,14.9700921 13.3239178,15.3894299 L13.3239178,15.9091945 C12.4731165,15.1163433 11.3332348,14.6299799 10.0813214,14.6299799 C7.45571767,14.6299799 5.31960179,16.765947 5.31960179,19.3914763 C5.31960179,22.01708 7.45571767,24.1531958 10.0813214,24.1531958 C11.3332348,24.1531958 12.4731165,23.666758 13.3239178,22.8739812 L13.3239178,23.3937458 C13.3239178,23.813158 13.6639556,24.1531958 14.0833678,24.1531958 C14.50278,24.1531958 14.8428178,23.813158 14.8428178,23.3937458 L14.8428178,15.3894299 C14.8428178,14.9700921 14.50278,14.6299799 14.0833678,14.6299799" id="Fill-3" fill="#022838"></path>
                    <path d="M46.0859768,22.6342958 C44.2979329,22.6342958 42.843306,21.1795202 42.843306,19.3914763 C42.843306,17.6034323 44.2979329,16.1488799 46.0859768,16.1488799 C47.8740207,16.1488799 49.3286476,17.6034323 49.3286476,19.3914763 C49.3286476,21.1795202 47.8740207,22.6342958 46.0859768,22.6342958 M50.0880976,14.6299799 C49.6686854,14.6299799 49.3286476,14.9700921 49.3286476,15.3894299 L49.3286476,15.9091945 C48.4777719,15.1163433 47.3378902,14.6299799 46.0859768,14.6299799 C43.4603731,14.6299799 41.324406,16.765947 41.324406,19.3914763 C41.324406,22.01708 43.4603731,24.1531958 46.0859768,24.1531958 C47.3378902,24.1531958 48.4777719,23.666758 49.3286476,22.8739812 L49.3286476,23.3937458 C49.3286476,23.813158 49.6686854,24.1531958 50.0880976,24.1531958 C50.5074354,24.1531958 50.8475476,23.813158 50.8475476,23.3937458 L50.8475476,15.3894299 C50.8475476,14.9700921 50.5074354,14.6299799 50.0880976,14.6299799" id="Fill-5" fill="#022838"></path>
                    <path d="M21.6275726,22.6342958 C19.8395287,22.6342958 18.3849019,21.1795202 18.3849019,19.3914763 C18.3849019,17.6034323 19.8395287,16.1488799 21.6275726,16.1488799 C23.4156166,16.1488799 24.8702434,17.6034323 24.8702434,19.3914763 C24.8702434,21.1795202 23.4156166,22.6342958 21.6275726,22.6342958 M25.6296934,11.1954566 C25.2102812,11.1954566 24.8702434,11.5354944 24.8702434,11.9549066 L24.8702434,15.9091945 C24.0193678,15.1163433 22.8794861,14.6299799 21.6275726,14.6299799 C19.0019689,14.6299799 16.8660018,16.765947 16.8660018,19.3914763 C16.8660018,22.01708 19.0019689,24.1531958 21.6275726,24.1531958 C22.8794861,24.1531958 24.0193678,23.666758 24.8702434,22.8739812 L24.8702434,23.3937458 C24.8702434,23.813158 25.2102812,24.1531958 25.6296934,24.1531958 C26.0490312,24.1531958 26.3891434,23.813158 26.3891434,23.3937458 L26.3891434,11.9549066 C26.3891434,11.5354944 26.0490312,11.1954566 25.6296934,11.1954566" id="Fill-7" fill="#022838"></path>
                    <path d="M40.7518168,23.3750739 C40.7518168,23.7945605 40.4118534,24.1345239 39.9923668,24.1345239 C39.5728802,24.1345239 39.2329168,23.7945605 39.2329168,23.3750739 C39.2329168,22.9556617 39.5728802,22.6156239 39.9923668,22.6156239 C40.4118534,22.6156239 40.7518168,22.9556617 40.7518168,23.3750739" id="Fill-9" fill="#ED570C"></path>
                    <path d="M53.7957595,14.6300022 C53.3764216,14.6300022 53.0363094,14.97004 53.0363094,15.3894522 L53.0363094,23.3937682 C53.0363094,23.813106 53.3764216,24.1532182 53.7957595,24.1532182 C54.2151717,24.1532182 54.5552095,23.813106 54.5552095,23.3937682 L54.5552095,15.3894522 C54.5552095,14.97004 54.2151717,14.6300022 53.7957595,14.6300022" id="Fill-11" fill="#022838"></path>
                    <path d="M54.5641437,12.556084 C54.5641437,12.9755706 54.2241059,13.315534 53.8046937,13.315534 C53.3852071,13.315534 53.0452437,12.9755706 53.0452437,12.556084 C53.0452437,12.1366718 53.3852071,11.796634 53.8046937,11.796634 C54.2241059,11.796634 54.5641437,12.1366718 54.5641437,12.556084" id="Fill-13" fill="#022838"></path>
                    <g id="Group-17" transform="translate(0.000000, 18.548984)">
                        <mask id="mask-2" fill="white">
                            <use xlink:href="#path-1"></use>
                        </mask>
                        <g id="Clip-16"></g>
                        <path d="M2.90120468,1.66094076 L0.818277817,1.66094076 C0.366357079,1.66094076 -1.4878049e-05,1.2945688 -1.4878049e-05,0.842648061 C-1.4878049e-05,0.390727323 0.366357079,0.0243553662 0.818277817,0.0243553662 L2.90120468,0.0243553662 C3.35312542,0.0243553662 3.71949737,0.390727323 3.71949737,0.842648061 C3.71949737,1.2945688 3.35312542,1.66094076 2.90120468,1.66094076" id="Fill-15" fill="#ED570C" mask="url(#mask-2)"></path>
                    </g>
                    <path d="M59.7859149,20.2099252 L57.7029881,20.2099252 C57.2510673,20.2099252 56.8846954,19.8435532 56.8846954,19.3916325 C56.8846954,18.9397117 57.2510673,18.5733398 57.7029881,18.5733398 L59.7859149,18.5733398 C60.2378357,18.5733398 60.6042076,18.9397117 60.6042076,19.3916325 C60.6042076,19.8435532 60.2378357,20.2099252 59.7859149,20.2099252" id="Fill-18" fill="#ED570C"></path>
                    <path d="M30.3021001,33.8712176 C25.9178366,33.8712176 21.8173719,31.9161675 19.0520633,28.5073834 C18.7672975,28.1564102 18.8210816,27.6411089 19.1720548,27.3563431 C19.5228792,27.0716516 20.0381804,27.1252126 20.3230207,27.4763346 C22.7761878,30.500298 26.4134244,32.2346322 30.3021001,32.2346322 C34.1907758,32.2346322 37.8280124,30.500298 40.2811795,27.4763346 C40.565871,27.1253614 41.0810978,27.0716516 41.4321454,27.3563431 C41.7831185,27.6411089 41.8369027,28.1564102 41.5521368,28.5073834 C38.7868283,31.9161675 34.6863636,33.8712176 30.3021001,33.8712176" id="Fill-20" fill="#022838"></path>
                    <path d="M40.7874869,11.4524377 C40.5534552,11.4524377 40.3211345,11.352606 40.1593357,11.1590426 C37.7094418,8.22903403 34.1166161,6.54855839 30.3021075,6.54855839 C26.4875989,6.54855839 22.8947733,8.22903403 20.4448793,11.1590426 C20.1551293,11.5058499 19.6390098,11.5519719 19.2922769,11.2618499 C18.9455439,10.9720255 18.8994964,10.455906 19.1893952,10.1092475 C21.9510586,6.80632059 26.0014587,4.911973 30.3021075,4.911973 C34.602682,4.911973 38.6531564,6.80632059 41.4148199,10.1092475 C41.7047187,10.455906 41.6586711,10.9720255 41.3119382,11.2618499 C41.1587687,11.3899499 40.9725699,11.4524377 40.7874869,11.4524377" id="Fill-22" fill="#022838"></path>
                    <path d="M46.6890883,11.4606567 C46.3969578,11.4606567 46.1142748,11.3039027 45.9668334,11.0282869 C42.867215,5.23522093 36.8648893,1.63659283 30.3021075,1.63659283 C23.7393257,1.63659283 17.737,5.23522093 14.6373817,11.0282869 C14.4241048,11.426721 13.9282939,11.5769149 13.5297853,11.3637125 C13.1313512,11.15051 12.9810829,10.6546247 13.1942853,10.2561905 C16.5792646,3.92996969 23.134533,7.4390245e-06 30.3021075,7.4390245e-06 C37.4696076,7.4390245e-06 44.0249504,3.92996969 47.4098553,10.2561905 C47.6231322,10.6546247 47.4728639,11.15051 47.0744297,11.3637125 C46.9514627,11.4294735 46.8193456,11.4606567 46.6890883,11.4606567" id="Fill-24" fill="#022838"></path>
                    <g id="Group-28" transform="translate(13.092683, 27.252643)">
                        <mask id="mask-4" fill="white">
                            <use xlink:href="#path-3"></use>
                        </mask>
                        <g id="Clip-27"></g>
                        <path d="M17.209417,11.5305103 C10.0418425,11.5305103 3.48657408,7.60062243 0.101594758,1.2744016 C-0.111607685,0.875893062 0.0386606103,0.380007689 0.437094763,0.166805246 C0.835677695,-0.0463971958 1.33148868,0.103796709 1.54469112,0.502305251 C4.64430946,6.2952968 10.6466352,9.8939249 17.209417,9.8939249 C23.7721988,9.8939249 29.7745245,6.2952968 32.8741428,0.502305251 C33.0873452,0.103871099 33.5831562,-0.0463971958 33.9817392,0.166805246 C34.3801733,0.380007689 34.5304416,0.875893062 34.3172392,1.2744016 C30.9322599,7.60062243 24.3769915,11.5305103 17.209417,11.5305103" id="Fill-26" fill="#022838" mask="url(#mask-4)"></path>
                    </g>
                </g>
            </g>
        </g>
    </g>
</svg>