<?xml version="1.0" encoding="utf-8"?>
<!-- Generator: Adobe Illustrator 25.4.1, SVG Export Plug-In . SVG Version: 6.00 Build 0)  -->
<svg width="61px" height="39px"  version="1.1" id="Layer_1" xmlns="http://www.w3.org/2000/svg" xmlns:xlink="http://www.w3.org/1999/xlink" x="0px" y="0px"
	 viewBox="0 0 62 42" style="enable-background:new 0 0 62 42;" xml:space="preserve">
<style type="text/css">
	.st0{fill:#EE6207;}
	.st1{fill:#002D40;}
</style>
<g>
	<g>
		<g>
			<path class="st0" d="M59.5,22.2h-1.9c-0.4,0-0.7-0.3-0.7-0.7s0.3-0.7,0.7-0.7h1.9c0.4,0,0.7,0.3,0.7,0.7S59.9,22.2,59.5,22.2z"/>
		</g>
		<g>
			<path class="st0" d="M4.4,22.2H2.5c-0.4,0-0.7-0.3-0.7-0.7s0.3-0.7,0.7-0.7h1.9c0.4,0,0.7,0.3,0.7,0.7S4.8,22.2,4.4,22.2z"/>
		</g>
	</g>
	<g>
		<g>
			<g>
				<path class="st1" d="M30.9,34.1c-4,0-7.7-1.8-10.2-4.8c-0.3-0.3-0.2-0.8,0.1-1c0.3-0.3,0.8-0.2,1,0.1c2.2,2.7,5.5,4.3,9,4.3
					c3.5,0,6.8-1.6,9-4.3c0.3-0.3,0.7-0.4,1-0.1c0.3,0.3,0.4,0.7,0.1,1C38.6,32.3,34.9,34.1,30.9,34.1z"/>
			</g>
			<g>
				<path class="st1" d="M21.5,13.8c-0.2,0-0.3-0.1-0.5-0.2c-0.3-0.3-0.4-0.7-0.1-1c2.5-3,6.2-4.7,10-4.7c3.9,0,7.5,1.7,10,4.7
					c0.3,0.3,0.2,0.8-0.1,1c-0.3,0.3-0.8,0.2-1-0.1c-2.2-2.6-5.5-4.2-8.9-4.2s-6.7,1.5-8.9,4.2C21.9,13.7,21.7,13.8,21.5,13.8z"/>
			</g>
		</g>
		<g>
			<g>
				<path class="st1" d="M45.7,13.8c-0.3,0-0.5-0.1-0.7-0.4C42.3,8.2,36.9,5,30.9,5C25,5,19.6,8.2,16.8,13.4c-0.2,0.4-0.6,0.5-1,0.3
					c-0.4-0.2-0.5-0.6-0.3-1c3.1-5.7,9-9.3,15.5-9.3c6.5,0,12.4,3.6,15.5,9.3c0.2,0.4,0.1,0.8-0.3,1C46,13.8,45.9,13.8,45.7,13.8z"
					/>
			</g>
			<g>
				<path class="st1" d="M30.9,38.5c-6.5,0-12.4-3.6-15.5-9.3c-0.2-0.4-0.1-0.8,0.3-1c0.4-0.2,0.8-0.1,1,0.3
					C19.6,33.8,25,37,30.9,37c5.9,0,11.4-3.3,14.2-8.5c0.2-0.4,0.6-0.5,1-0.3c0.4,0.2,0.5,0.6,0.3,1C43.3,35,37.4,38.5,30.9,38.5z"
					/>
			</g>
		</g>
	</g>
	<g>
		<g>
			<g>
				<path class="st1" d="M18.8,26.1c-2.5,0-4.5-2-4.5-4.5s2-4.5,4.5-4.5s4.5,2,4.5,4.5S21.3,26.1,18.8,26.1z M18.8,18.4
					c-1.8,0-3.2,1.4-3.2,3.2c0,1.8,1.4,3.2,3.2,3.2c1.8,0,3.2-1.4,3.2-3.2C22,19.8,20.6,18.4,18.8,18.4z"/>
			</g>
			<g>
				<path class="st1" d="M22.7,26.1c-0.4,0-0.7-0.3-0.7-0.7v-7.7c0-0.4,0.3-0.7,0.7-0.7c0.4,0,0.7,0.3,0.7,0.7v7.7
					C23.4,25.8,23.1,26.1,22.7,26.1z"/>
			</g>
		</g>
		<g>
			<g>
				<path class="st1" d="M54.3,26.1c-0.4,0-0.7-0.3-0.7-0.7V21c0-1.5-1.2-2.7-2.7-2.7c-1.5,0-2.7,1.2-2.7,2.7c0,0.4-0.3,0.7-0.7,0.7
					s-0.7-0.3-0.7-0.7c0-2.2,1.8-4,4-4s4,1.8,4,4v4.4C54.9,25.8,54.6,26.1,54.3,26.1z"/>
			</g>
			<g>
				<path class="st1" d="M47.6,26.1c-0.4,0-0.7-0.3-0.7-0.7v-7.7c0-0.4,0.3-0.7,0.7-0.7s0.7,0.3,0.7,0.7v7.7
					C48.3,25.8,48,26.1,47.6,26.1z"/>
			</g>
		</g>
		<g>
			<path class="st1" d="M40.6,21.1h-2c-0.4,0-0.7-0.3-0.7-0.7s0.3-0.7,0.7-0.7h2c0.4,0,0.7,0.3,0.7,0.7S41,21.1,40.6,21.1z"/>
		</g>
		<g>
			<path class="st1" d="M26.9,26.1c-0.4,0-0.7-0.3-0.7-0.7V14.5c0-0.4,0.3-0.7,0.7-0.7c0.4,0,0.7,0.3,0.7,0.7v10.9
				C27.6,25.8,27.3,26.1,26.9,26.1z"/>
		</g>
		<g>
			<g>
				<path class="st1" d="M12.5,18.3H7.6c-0.4,0-0.7-0.3-0.7-0.7S7.2,17,7.6,17h4.9c0.4,0,0.7,0.3,0.7,0.7S12.9,18.3,12.5,18.3z"/>
			</g>
			<g>
				<path class="st1" d="M11.1,26.1c-1.2,0-2.3-1-2.3-2.3V16c0-0.4,0.3-0.7,0.7-0.7c0.4,0,0.7,0.3,0.7,0.7v7.8
					c0,0.5,0.4,0.9,0.9,0.9c0.4,0,0.7,0.3,0.7,0.7S11.5,26.1,11.1,26.1z"/>
			</g>
		</g>
		<g>
			<g>
				<path class="st1" d="M43.9,26c-0.4,0-0.7-0.3-0.7-0.7v-7.7c0-0.4,0.3-0.7,0.7-0.7s0.7,0.3,0.7,0.7v7.7
					C44.6,25.7,44.3,26,43.9,26z"/>
			</g>
			<circle class="st1" cx="43.9" cy="15" r="0.7"/>
		</g>
		<g>
			<g>
				<path class="st1" d="M30.8,26.1c-0.4,0-0.7-0.3-0.7-0.7V14.5c0-0.4,0.3-0.7,0.7-0.7s0.7,0.3,0.7,0.7v10.9
					C31.5,25.8,31.2,26.1,30.8,26.1z"/>
			</g>
			<g>
				<path class="st1" d="M36.3,26.1c-0.2,0-0.4-0.1-0.5-0.2l-3.3-3.4c-0.2-0.3-0.4-0.6-0.4-0.9c0-0.3,0.2-0.7,0.4-0.9l3.3-3
					c0.3-0.3,0.7-0.2,0.9,0c0.3,0.3,0.2,0.7,0,0.9l-3.2,2.9l3.2,3.3c0.3,0.3,0.3,0.7,0,1C36.7,26,36.5,26.1,36.3,26.1z"/>
			</g>
		</g>
	</g>
	<g>
	</g>
</g>
</svg>
