<?xml version="1.0" standalone="no"?>
<!DOCTYPE svg PUBLIC "-//W3C//DTD SVG 20010904//EN"
 "http://www.w3.org/TR/2001/REC-SVG-20010904/DTD/svg10.dtd">
<svg version="1.0" xmlns="http://www.w3.org/2000/svg"
 width="992.000000pt" height="992.000000pt" viewBox="0 0 992.000000 992.000000"
 preserveAspectRatio="xMidYMid meet">
<metadata>
Created by potrace 1.14, written by Peter Selinger 2001-2017
</metadata>
<g transform="translate(0.000000,992.000000) scale(0.100000,-0.100000)"
fill="#000000" stroke="none">
<path d="M4827 7774 c-1 -1 -43 -5 -92 -8 -50 -3 -101 -7 -115 -10 -14 -2 -47
-7 -73 -11 -27 -4 -59 -8 -70 -11 -66 -13 -84 -17 -102 -20 -48 -8 -156 -36
-230 -60 -44 -15 -84 -27 -90 -28 -21 -4 -110 -40 -120 -48 -5 -4 -15 -8 -23
-8 -40 0 -500 -244 -510 -272 -2 -4 -8 -8 -14 -8 -10 0 -185 -131 -225 -169
-12 -12 -25 -21 -29 -21 -10 0 -273 -268 -330 -335 -165 -198 -334 -466 -337
-534 -3 -81 78 -137 161 -110 26 9 43 28 89 107 31 53 72 118 90 144 18 26 33
50 33 53 0 3 6 13 14 22 8 10 50 63 94 118 112 141 276 304 402 400 36 28 67
52 70 55 31 32 330 215 330 202 0 -4 4 -2 8 3 8 12 77 45 225 109 31 14 57 22
57 19 0 -3 6 -1 13 4 11 10 121 48 163 58 10 2 44 11 74 19 30 8 66 17 80 20
14 3 45 10 70 16 25 6 65 13 89 16 24 2 46 6 50 8 29 18 509 27 636 13 78 -9
145 -18 170 -24 25 -5 111 -21 150 -29 66 -12 275 -78 390 -124 79 -31 239
-109 302 -146 136 -81 174 -106 260 -171 143 -107 266 -221 374 -343 58 -67
169 -210 169 -219 0 -6 3 -11 8 -11 4 0 18 -20 32 -45 14 -25 28 -45 32 -45 5
0 8 -4 8 -8 0 -10 78 -147 100 -177 40 -54 134 -69 193 -30 68 44 67 104 -4
223 -27 46 -49 88 -49 92 0 5 -3 10 -7 12 -11 5 -53 66 -53 77 0 5 -4 11 -8
13 -5 2 -23 26 -42 53 -18 28 -36 52 -39 55 -3 3 -24 28 -46 55 -22 28 -49 61
-60 75 -63 79 -355 356 -404 384 -9 5 -18 12 -21 16 -16 21 -281 200 -295 200
-3 0 -33 17 -67 38 -54 32 -111 62 -128 67 -3 1 -36 16 -75 34 -111 52 -123
57 -254 100 -123 41 -289 85 -366 96 -22 3 -49 9 -59 12 -11 3 -34 7 -50 9
-17 2 -49 6 -71 9 -96 14 -468 28 -478 19z"/>
<path d="M4807 7053 c-2 -1 -27 -4 -57 -7 -74 -6 -196 -25 -245 -38 -22 -5
-48 -12 -59 -14 -10 -2 -44 -11 -75 -20 -31 -9 -57 -16 -58 -15 -2 0 -23 -8
-48 -19 -25 -11 -49 -19 -53 -19 -4 0 -41 -15 -82 -33 -131 -56 -281 -140
-377 -210 -29 -21 -55 -37 -57 -36 -3 2 -11 -4 -18 -13 -7 -9 -35 -33 -63 -55
-66 -51 -210 -196 -261 -260 -41 -52 -45 -67 -30 -114 29 -91 155 -116 199
-40 17 29 190 207 232 240 11 8 47 36 80 62 77 60 228 151 313 190 117 52 126
56 202 81 220 73 372 96 615 92 203 -3 222 -5 360 -36 108 -25 99 -22 160 -41
151 -48 324 -131 470 -226 135 -89 212 -153 344 -288 61 -63 118 -115 126
-115 8 -1 21 -2 28 -3 51 -8 117 55 117 110 0 56 -16 78 -160 222 -345 344
-784 551 -1265 598 -53 6 -334 11 -338 7z"/>
<path d="M4242 6094 c-52 -36 -50 -3 -51 -964 0 -623 3 -903 11 -920 34 -78
151 -88 194 -16 18 29 19 75 19 921 1 490 -2 904 -7 920 -17 65 -111 98 -166
59z"/>
<path d="M4872 6097 c-12 -7 -30 -24 -39 -37 -17 -23 -18 -88 -18 -919 0 -575
3 -904 10 -924 38 -116 218 -80 215 43 -1 14 -1 126 -1 250 0 124 0 232 0 240
0 8 0 296 1 640 1 391 -2 635 -9 651 -22 59 -102 87 -159 56z"/>
<path d="M6952 6002 c-79 -74 -28 -197 80 -190 82 5 126 89 86 166 -29 57
-118 69 -166 24z"/>
<path d="M1465 5859 c-44 -23 -55 -52 -56 -159 -2 -94 -9 -124 -24 -101 -3 7
-15 7 -30 1 -13 -5 -27 -5 -30 -1 -3 5 -21 5 -40 1 -19 -4 -37 -4 -40 0 -3 5
-19 5 -35 0 -17 -5 -31 -8 -33 -8 -1 1 -11 -2 -22 -6 -45 -14 -63 -88 -35
-141 17 -31 72 -57 116 -55 22 1 69 2 106 1 l66 -1 1 -457 c0 -450 2 -488 16
-528 44 -126 142 -217 265 -248 113 -29 181 -1 196 83 13 67 -43 130 -114 128
-41 -1 -110 44 -126 83 -16 37 -20 925 -5 935 6 3 97 6 205 6 107 0 197 4 200
9 3 5 9 7 14 4 5 -3 18 7 29 21 50 63 8 160 -74 170 -47 6 -126 5 -136 -2 -4
-2 -10 0 -14 5 -3 7 -15 7 -30 1 -15 -6 -27 -6 -30 0 -3 6 -15 6 -30 0 -15 -6
-27 -6 -30 0 -3 5 -16 6 -28 1 -12 -4 -35 -5 -52 -2 -29 6 -30 7 -32 71 -1 36
-2 81 -3 100 -1 54 -40 92 -98 96 -26 2 -56 -1 -67 -7z"/>
<path d="M6995 5611 c-29 -9 -60 -33 -73 -56 -7 -15 -11 -221 -10 -665 0 -704
-2 -684 58 -715 37 -19 73 -19 109 0 59 30 58 19 57 726 -1 631 -1 647 -21
669 -35 39 -77 53 -120 41z"/>
<path d="M8098 5605 c-2 -3 -24 -7 -49 -10 -24 -3 -68 -12 -96 -20 -29 -9 -56
-16 -60 -17 -14 -2 -97 -50 -129 -74 l-32 -23 -6 40 c-12 73 -74 112 -146 90
-69 -21 -74 -37 -78 -286 -5 -316 -5 -352 0 -743 l4 -352 29 -29 c56 -55 148
-43 179 24 14 28 16 92 16 458 0 403 1 427 20 471 35 83 89 145 170 194 77 47
135 61 241 58 84 -3 105 -7 164 -34 105 -50 213 -173 230 -264 2 -10 7 -24 11
-30 5 -7 9 -193 10 -413 1 -220 2 -408 3 -419 1 -10 16 -33 35 -51 29 -27 41
-32 73 -29 26 2 45 11 60 28 22 26 22 27 21 446 0 379 -2 426 -19 490 -36 132
-86 219 -182 313 -32 31 -62 57 -67 57 -5 0 -15 6 -22 13 -29 28 -136 75 -213
94 -11 2 -47 6 -81 7 -34 2 -66 6 -71 9 -6 4 -12 4 -15 2z"/>
<path d="M3585 5591 c-49 -21 -66 -64 -66 -158 1 -29 -1 -53 -3 -53 -1 0 -14
10 -27 21 -166 146 -379 208 -594 173 -91 -15 -245 -69 -245 -86 0 -5 -5 -8
-10 -8 -39 0 -199 -160 -253 -251 -38 -65 -80 -181 -91 -254 -8 -50 -8 -180
-1 -220 19 -95 30 -129 69 -210 43 -87 55 -105 134 -189 130 -138 313 -211
522 -209 69 0 95 3 159 17 89 20 195 72 277 136 56 44 62 46 63 27 5 -115 12
-139 46 -161 54 -36 127 -22 161 30 17 26 19 69 19 663 1 658 0 677 -39 716
-18 18 -93 28 -121 16z m-454 -231 c242 -61 390 -258 384 -510 -2 -105 -26
-186 -78 -265 -43 -65 -50 -73 -117 -126 -43 -35 -130 -85 -130 -75 0 3 -17
-2 -37 -11 -45 -18 -185 -24 -252 -11 -83 18 -190 76 -250 137 -68 70 -70 73
-103 141 -58 124 -68 283 -22 397 66 165 173 268 324 313 101 29 193 33 281
10z"/>
<path d="M5755 5508 c-11 -7 -25 -16 -31 -22 -26 -26 -210 -193 -238 -218 -17
-14 -49 -44 -72 -65 -23 -21 -85 -78 -138 -127 -182 -167 -184 -244 -8 -425
48 -50 87 -91 87 -91 0 0 88 -90 195 -200 107 -110 207 -204 222 -209 29 -11
63 -7 82 8 7 6 22 31 35 57 42 84 61 59 -400 531 l-130 133 38 32 c20 18 51
47 69 63 17 17 66 62 109 100 43 39 95 85 114 104 20 18 63 56 95 85 85 74
106 97 115 131 9 35 -10 85 -41 104 -28 17 -80 22 -103 9z"/>
<path d="M6101 5138 c-17 -16 -32 -39 -32 -51 -4 -58 3 -84 31 -112 l30 -30
203 0 c186 0 204 2 229 20 34 25 45 51 43 95 -3 46 -2 44 -22 67 -35 39 -54
42 -256 41 l-195 -1 -31 -29z"/>
<path d="M393 4992 c-33 -2 -48 -10 -72 -38 -44 -49 -43 -101 2 -150 l33 -36
186 0 c211 0 233 6 261 64 15 30 16 44 8 76 -12 41 -38 71 -68 77 -10 2 -18 4
-18 5 0 3 -294 5 -332 2z"/>
<path d="M9210 4992 c-100 -10 -141 -129 -66 -194 34 -31 22 -30 258 -30 137
0 160 3 182 19 56 41 61 132 10 177 -16 14 -38 26 -49 26 -81 3 -306 4 -335 2z"/>
<path d="M2518 3809 c-76 -39 -89 -103 -38 -189 17 -28 30 -53 30 -56 0 -3 8
-17 19 -32 10 -15 40 -61 67 -102 27 -41 54 -80 59 -86 6 -7 19 -24 30 -40 94
-132 330 -384 444 -474 24 -19 48 -40 55 -46 67 -63 326 -234 466 -306 131
-68 381 -171 470 -193 3 -1 12 -4 20 -8 15 -5 66 -19 85 -23 6 -1 12 -3 15 -4
9 -3 29 -8 110 -25 179 -39 430 -69 555 -67 81 2 316 13 335 16 14 2 46 7 72
10 80 10 122 17 218 37 30 6 62 13 70 14 8 2 15 4 15 5 0 1 7 3 15 5 8 1 35 8
60 15 25 7 52 14 60 15 48 11 281 98 320 119 14 8 29 14 33 15 23 0 211 103
392 214 48 29 233 171 293 224 120 107 270 263 346 361 11 15 25 32 31 39 24
29 33 41 65 88 19 28 37 52 42 53 4 2 8 8 8 13 0 6 18 37 40 69 22 32 40 63
40 69 0 5 3 11 8 13 4 2 22 31 40 66 27 49 32 70 28 100 -3 20 -5 40 -6 44 0
14 -78 59 -106 62 -52 5 -80 -19 -140 -121 -271 -460 -639 -804 -1099 -1031
-128 -63 -293 -132 -317 -132 -8 0 -18 -4 -24 -8 -8 -8 -64 -26 -113 -38 -9
-2 -45 -10 -81 -19 -83 -21 -155 -35 -205 -41 -21 -3 -42 -7 -45 -9 -41 -25
-597 -25 -715 0 -11 2 -36 7 -55 10 -149 22 -407 93 -544 150 -20 8 -38 15
-41 15 -3 0 -33 14 -68 32 -34 17 -66 33 -72 34 -20 4 -222 123 -304 179 -84
56 -196 143 -260 200 -112 99 -312 316 -345 374 -5 9 -12 18 -16 21 -15 11
-150 214 -150 226 0 7 -4 14 -8 16 -5 2 -22 28 -40 59 -45 79 -100 102 -164
68z"/>
<path d="M3350 3808 c-62 -33 -84 -123 -43 -171 236 -276 509 -478 818 -607
84 -35 202 -77 240 -85 6 -1 30 -7 55 -14 25 -7 56 -15 70 -17 14 -3 32 -7 40
-9 14 -4 52 -11 120 -21 111 -16 390 -23 495 -11 129 14 162 20 230 36 22 6
54 12 72 16 35 6 235 69 268 84 11 5 56 26 100 45 44 20 91 43 105 52 14 8 41
22 60 31 19 8 37 19 40 22 3 4 32 25 65 46 33 21 62 40 65 44 3 3 21 17 40 31
114 80 333 307 372 385 32 64 -30 155 -107 155 -31 0 -73 -25 -99 -60 -11 -14
-67 -72 -125 -130 -105 -104 -204 -184 -311 -252 -75 -48 -230 -130 -230 -122
0 4 -6 2 -13 -4 -23 -20 -192 -80 -298 -106 -128 -32 -132 -33 -216 -41 -37
-4 -77 -9 -88 -11 -28 -6 -261 -5 -311 1 -111 13 -225 33 -289 51 -5 2 -19 5
-30 7 -20 5 -135 43 -205 69 -69 25 -257 124 -340 180 -142 94 -256 197 -411
372 -39 43 -95 57 -139 34z"/>
</g>
</svg>
